<svg id="booking" xmlns="http://www.w3.org/2000/svg" width="17.455" height="17.455" viewBox="0 0 17.455 17.455">
  <g id="Group_1853" data-name="Group 1853">
    <g id="Group_1852" data-name="Group 1852">
      <path id="Path_1859" data-name="Path 1859" d="M16,2.327h-.291V.873A.874.874,0,0,0,14.837,0h-.582a.874.874,0,0,0-.873.873V2.327H4.073V.873A.874.874,0,0,0,3.2,0H2.618a.874.874,0,0,0-.873.873V2.327H1.455A1.456,1.456,0,0,0,0,3.782V16a1.456,1.456,0,0,0,1.455,1.455H16A1.456,1.456,0,0,0,17.455,16V3.782A1.456,1.456,0,0,0,16,2.327Zm-2.036.291V.873a.291.291,0,0,1,.291-.291h.582a.291.291,0,0,1,.291.291V3.782a.291.291,0,0,1-.291.291h-.582a.291.291,0,0,1-.291-.291Zm-11.637,0V.873A.291.291,0,0,1,2.618.582H3.2a.291.291,0,0,1,.291.291V3.782a.291.291,0,0,1-.291.291H2.618a.291.291,0,0,1-.291-.291ZM16.873,16a.874.874,0,0,1-.873.873H1.455A.874.874,0,0,1,.582,16V7.564H16.873Zm0-9.018H.582v-3.2a.874.874,0,0,1,.873-.873h.291v.873a.874.874,0,0,0,.873.873H3.2a.874.874,0,0,0,.873-.873V2.909h9.309v.873a.874.874,0,0,0,.873.873h.582a.874.874,0,0,0,.873-.873V2.909H16a.874.874,0,0,1,.873.873Z" fill="#5aade6"/>
    </g>
  </g>
  <g id="Group_1855" data-name="Group 1855" transform="translate(5.236 3.782)">
    <g id="Group_1854" data-name="Group 1854">
      <path id="Path_1860" data-name="Path 1860" d="M150.691,104h-6.4a.291.291,0,0,0-.291.291v1.745a.291.291,0,0,0,.291.291h6.4a.291.291,0,0,0,.291-.291v-1.745A.291.291,0,0,0,150.691,104Zm-.291,1.745h-5.818v-1.164H150.4Z" transform="translate(-144 -104)" fill="#5aade6"/>
    </g>
  </g>
  <g id="Group_1857" data-name="Group 1857" transform="translate(1.745 8.437)">
    <g id="Group_1856" data-name="Group 1856">
      <path id="Path_1861" data-name="Path 1861" d="M50.036,232H48.291a.291.291,0,0,0-.291.291v1.455a.291.291,0,0,0,.291.291h1.745a.291.291,0,0,0,.291-.291v-1.455A.291.291,0,0,0,50.036,232Zm-.291,1.455H48.582v-.873h1.164Z" transform="translate(-48 -232)" fill="#5aade6"/>
    </g>
  </g>
  <g id="Group_1859" data-name="Group 1859" transform="translate(5.527 8.437)">
    <g id="Group_1858" data-name="Group 1858">
      <path id="Path_1862" data-name="Path 1862" d="M154.036,232h-1.746a.291.291,0,0,0-.291.291v1.455a.291.291,0,0,0,.291.291h1.746a.291.291,0,0,0,.291-.291v-1.455A.291.291,0,0,0,154.036,232Zm-.291,1.455h-1.164v-.873h1.164Z" transform="translate(-152 -232)" fill="#5aade6"/>
    </g>
  </g>
  <g id="Group_1861" data-name="Group 1861" transform="translate(9.6 8.437)">
    <g id="Group_1860" data-name="Group 1860">
      <path id="Path_1863" data-name="Path 1863" d="M266.036,232h-1.745a.291.291,0,0,0-.291.291v1.455a.291.291,0,0,0,.291.291h1.745a.291.291,0,0,0,.291-.291v-1.455A.291.291,0,0,0,266.036,232Zm-.291,1.455h-1.164v-.873h1.164Z" transform="translate(-264 -232)" fill="#5aade6"/>
    </g>
  </g>
  <g id="Group_1863" data-name="Group 1863" transform="translate(13.382 8.437)">
    <g id="Group_1862" data-name="Group 1862">
      <path id="Path_1864" data-name="Path 1864" d="M370.036,232h-1.746a.291.291,0,0,0-.291.291v1.455a.291.291,0,0,0,.291.291h1.746a.291.291,0,0,0,.291-.291v-1.455A.291.291,0,0,0,370.036,232Zm-.291,1.455h-1.164v-.873h1.164Z" transform="translate(-368 -232)" fill="#5aade6"/>
    </g>
  </g>
  <g id="Group_1865" data-name="Group 1865" transform="translate(1.745 11.346)">
    <g id="Group_1864" data-name="Group 1864">
      <path id="Path_1865" data-name="Path 1865" d="M50.036,312H48.291a.291.291,0,0,0-.291.291v1.455a.291.291,0,0,0,.291.291h1.745a.291.291,0,0,0,.291-.291v-1.455A.291.291,0,0,0,50.036,312Zm-.291,1.455H48.582v-.873h1.164Z" transform="translate(-48 -312)" fill="#5aade6"/>
    </g>
  </g>
  <g id="Group_1867" data-name="Group 1867" transform="translate(5.527 11.346)">
    <g id="Group_1866" data-name="Group 1866">
      <path id="Path_1866" data-name="Path 1866" d="M154.036,312h-1.746a.291.291,0,0,0-.291.291v1.455a.291.291,0,0,0,.291.291h1.746a.291.291,0,0,0,.291-.291v-1.455A.291.291,0,0,0,154.036,312Zm-.291,1.455h-1.164v-.873h1.164Z" transform="translate(-152 -312)" fill="#5aade6"/>
    </g>
  </g>
  <g id="Group_1869" data-name="Group 1869" transform="translate(9.6 11.346)">
    <g id="Group_1868" data-name="Group 1868">
      <path id="Path_1867" data-name="Path 1867" d="M266.036,312h-1.745a.291.291,0,0,0-.291.291v1.455a.291.291,0,0,0,.291.291h1.745a.291.291,0,0,0,.291-.291v-1.455A.291.291,0,0,0,266.036,312Zm-.291,1.455h-1.164v-.873h1.164Z" transform="translate(-264 -312)" fill="#5aade6"/>
    </g>
  </g>
  <g id="Group_1871" data-name="Group 1871" transform="translate(13.382 11.346)">
    <g id="Group_1870" data-name="Group 1870">
      <path id="Path_1868" data-name="Path 1868" d="M370.036,312h-1.746a.291.291,0,0,0-.291.291v1.455a.291.291,0,0,0,.291.291h1.746a.291.291,0,0,0,.291-.291v-1.455A.291.291,0,0,0,370.036,312Zm-.291,1.455h-1.164v-.873h1.164Z" transform="translate(-368 -312)" fill="#5aade6"/>
    </g>
  </g>
  <g id="Group_1873" data-name="Group 1873" transform="translate(1.745 14.255)">
    <g id="Group_1872" data-name="Group 1872">
      <path id="Path_1869" data-name="Path 1869" d="M50.036,392H48.291a.291.291,0,0,0-.291.291v1.455a.291.291,0,0,0,.291.291h1.745a.291.291,0,0,0,.291-.291v-1.455A.291.291,0,0,0,50.036,392Zm-.291,1.455H48.582v-.873h1.164Z" transform="translate(-48 -392)" fill="#5aade6"/>
    </g>
  </g>
  <g id="Group_1875" data-name="Group 1875" transform="translate(5.527 14.255)">
    <g id="Group_1874" data-name="Group 1874">
      <path id="Path_1870" data-name="Path 1870" d="M154.036,392h-1.746a.291.291,0,0,0-.291.291v1.455a.291.291,0,0,0,.291.291h1.746a.291.291,0,0,0,.291-.291v-1.455A.291.291,0,0,0,154.036,392Zm-.291,1.455h-1.164v-.873h1.164Z" transform="translate(-152 -392)" fill="#5aade6"/>
    </g>
  </g>
  <g id="Group_1877" data-name="Group 1877" transform="translate(9.395 14.069)">
    <g id="Group_1876" data-name="Group 1876">
      <path id="Path_1871" data-name="Path 1871" d="M260.654,386.88l-1.251,1.5-.648-.648-.411.411.873.873a.289.289,0,0,0,.206.085h.013a.293.293,0,0,0,.211-.1l1.455-1.745Z" transform="translate(-258.344 -386.88)" fill="#5aade6"/>
    </g>
  </g>
  <g id="Group_1879" data-name="Group 1879" transform="translate(12.886 14.069)">
    <g id="Group_1878" data-name="Group 1878">
      <path id="Path_1872" data-name="Path 1872" d="M356.654,386.88l-1.251,1.5-.648-.648-.411.411.873.873a.289.289,0,0,0,.206.085h.013a.293.293,0,0,0,.211-.1l1.455-1.745Z" transform="translate(-354.344 -386.88)" fill="#5aade6"/>
    </g>
  </g>
</svg>
