<svg xmlns="http://www.w3.org/2000/svg" width="11.278" height="10.05" viewBox="0 0 11.278 10.05">
  <g id="calendar_9_" data-name="calendar (9)" transform="translate(0 -20.9)">
    <g id="Group_1816" data-name="Group 1816" transform="translate(0 20.9)">
      <g id="Group_1815" data-name="Group 1815" transform="translate(0 0)">
        <path id="Path_1847" data-name="Path 1847" d="M10.109,21.755H9.4v-.561a.294.294,0,0,0-.588,0v.561H5.934v-.561a.294.294,0,0,0-.588,0v.561H2.438v-.561a.294.294,0,0,0-.588,0v.561H1.172A1.189,1.189,0,0,0,0,22.945v6.83A1.172,1.172,0,0,0,1.172,30.95h8.934a1.172,1.172,0,0,0,1.172-1.172V22.945A1.184,1.184,0,0,0,10.109,21.755Zm.585,8.02a.586.586,0,0,1-.582.588H1.172a.584.584,0,0,1-.585-.585V22.945a.6.6,0,0,1,.585-.6h.679v.426a.294.294,0,1,0,.588,0v-.426H5.347v.426a.294.294,0,1,0,.588,0v-.426H8.814v.426a.294.294,0,1,0,.588,0v-.426h.708a.6.6,0,0,1,.585.6Z" transform="translate(0 -20.9)" fill="#ff717f"/>
      </g>
    </g>
    <g id="Group_1818" data-name="Group 1818" transform="translate(4.06 24.252)">
      <g id="Group_1817" data-name="Group 1817" transform="translate(0 0)">
        <path id="Path_1848" data-name="Path 1848" d="M139.008,135h-.514a.294.294,0,0,0,0,.588h.514a.294.294,0,0,0,0-.588Z" transform="translate(-138.2 -135)" fill="#ff717f"/>
      </g>
    </g>
    <g id="Group_1820" data-name="Group 1820" transform="translate(6.105 24.252)">
      <g id="Group_1819" data-name="Group 1819" transform="translate(0 0)">
        <path id="Path_1849" data-name="Path 1849" d="M208.608,135h-.514a.294.294,0,1,0,0,.588h.514a.294.294,0,1,0,0-.588Z" transform="translate(-207.8 -135)" fill="#ff717f"/>
      </g>
    </g>
    <g id="Group_1822" data-name="Group 1822" transform="translate(8.167 24.252)">
      <g id="Group_1821" data-name="Group 1821" transform="translate(0 0)">
        <path id="Path_1850" data-name="Path 1850" d="M278.808,135h-.514a.294.294,0,0,0,0,.588h.514a.294.294,0,1,0,0-.588Z" transform="translate(-278 -135)" fill="#ff717f"/>
      </g>
    </g>
    <g id="Group_1824" data-name="Group 1824" transform="translate(4.06 26.279)">
      <g id="Group_1823" data-name="Group 1823">
        <path id="Path_1851" data-name="Path 1851" d="M139.008,204h-.514a.294.294,0,1,0,0,.588h.514a.294.294,0,1,0,0-.588Z" transform="translate(-138.2 -204)" fill="#ff717f"/>
      </g>
    </g>
    <g id="Group_1826" data-name="Group 1826" transform="translate(1.998 26.279)">
      <g id="Group_1825" data-name="Group 1825">
        <path id="Path_1852" data-name="Path 1852" d="M68.811,204h-.517a.294.294,0,1,0,0,.588h.514a.294.294,0,0,0,0-.588Z" transform="translate(-68 -204)" fill="#ff717f"/>
      </g>
    </g>
    <g id="Group_1828" data-name="Group 1828" transform="translate(6.105 26.279)">
      <g id="Group_1827" data-name="Group 1827">
        <path id="Path_1853" data-name="Path 1853" d="M208.608,204h-.514a.294.294,0,1,0,0,.588h.514a.294.294,0,1,0,0-.588Z" transform="translate(-207.8 -204)" fill="#ff717f"/>
      </g>
    </g>
    <g id="Group_1830" data-name="Group 1830" transform="translate(8.167 26.279)">
      <g id="Group_1829" data-name="Group 1829">
        <path id="Path_1854" data-name="Path 1854" d="M278.808,204h-.514a.294.294,0,0,0,0,.588h.514a.294.294,0,1,0,0-.588Z" transform="translate(-278 -204)" fill="#ff717f"/>
      </g>
    </g>
    <g id="Group_1832" data-name="Group 1832" transform="translate(4.06 28.277)">
      <g id="Group_1831" data-name="Group 1831" transform="translate(0 0)">
        <path id="Path_1855" data-name="Path 1855" d="M139.008,272h-.514a.294.294,0,1,0,0,.588h.514a.294.294,0,1,0,0-.588Z" transform="translate(-138.2 -272)" fill="#ff717f"/>
      </g>
    </g>
    <g id="Group_1834" data-name="Group 1834" transform="translate(1.998 28.277)">
      <g id="Group_1833" data-name="Group 1833" transform="translate(0 0)">
        <path id="Path_1856" data-name="Path 1856" d="M68.811,272h-.517a.294.294,0,1,0,0,.588h.514a.294.294,0,0,0,0-.588Z" transform="translate(-68 -272)" fill="#ff717f"/>
      </g>
    </g>
    <g id="Group_1836" data-name="Group 1836" transform="translate(6.105 28.277)">
      <g id="Group_1835" data-name="Group 1835" transform="translate(0 0)">
        <path id="Path_1857" data-name="Path 1857" d="M208.608,272h-.514a.294.294,0,1,0,0,.588h.514a.294.294,0,1,0,0-.588Z" transform="translate(-207.8 -272)" fill="#ff717f"/>
      </g>
    </g>
  </g>
</svg>
