<svg xmlns="http://www.w3.org/2000/svg" width="11.852" height="8.148" viewBox="0 0 11.852 8.148">
  <g id="email_5_" data-name="email (5)" transform="translate(0 -80)">
    <g id="Group_2475" data-name="Group 2475" transform="translate(7.856 81.502)">
      <g id="Group_2474" data-name="Group 2474">
        <path id="Path_3177" data-name="Path 3177" d="M339.392,147.529l4,2.526V144.9Z" transform="translate(-339.392 -144.896)" fill="#ff5d74"/>
      </g>
    </g>
    <g id="Group_2477" data-name="Group 2477" transform="translate(0 81.502)">
      <g id="Group_2476" data-name="Group 2476">
        <path id="Path_3178" data-name="Path 3178" d="M0,144.9v5.158l4-2.526Z" transform="translate(0 -144.896)" fill="#ff5d74"/>
      </g>
    </g>
    <g id="Group_2479" data-name="Group 2479" transform="translate(0.022 80)">
      <g id="Group_2478" data-name="Group 2478">
        <path id="Path_3179" data-name="Path 3179" d="M12.049,80H1.678a.732.732,0,0,0-.718.63l5.9,3.89,5.9-3.89A.732.732,0,0,0,12.049,80Z" transform="translate(-0.96 -80)" fill="#ff5d74"/>
      </g>
    </g>
    <g id="Group_2481" data-name="Group 2481" transform="translate(0.024 84.581)">
      <g id="Group_2480" data-name="Group 2480">
        <path id="Path_3180" data-name="Path 3180" d="M8.178,277.921l-1.048.69a.372.372,0,0,1-.407,0l-1.048-.691-4.65,2.941a.73.73,0,0,0,.717.625h10.37a.73.73,0,0,0,.717-.625Z" transform="translate(-1.024 -277.92)" fill="#ff5d74"/>
      </g>
    </g>
  </g>
</svg>
