<svg id="group_9_" data-name="group (9)" xmlns="http://www.w3.org/2000/svg" width="22.643" height="14.377" viewBox="0 0 22.643 14.377">
  <g id="Group_1850" data-name="Group 1850" transform="translate(0 0)">
    <path id="Path_1858" data-name="Path 1858" d="M19.583,98.576a2.585,2.585,0,1,0-2.966,0,4.479,4.479,0,0,0-1.528.9,5.8,5.8,0,0,0-2.1-1.142,3.275,3.275,0,1,0-3.387,0,5.844,5.844,0,0,0-2.074,1.129,4.515,4.515,0,0,0-1.51-.878,2.585,2.585,0,1,0-2.966,0A4.538,4.538,0,0,0,0,102.868v.3a.019.019,0,0,0,.018.018H5.5a6.026,6.026,0,0,0-.049.757v.3a2.382,2.382,0,0,0,2.383,2.383h6.944a2.382,2.382,0,0,0,2.383-2.383v-.3a6.026,6.026,0,0,0-.049-.757h5.515a.019.019,0,0,0,.018-.018v-.3A4.555,4.555,0,0,0,19.583,98.576Zm-3.351-2.119a1.868,1.868,0,1,1,1.9,1.868h-.072A1.866,1.866,0,0,1,16.232,96.457Zm-7.5-.932a2.558,2.558,0,1,1,2.706,2.554h-.3A2.562,2.562,0,0,1,8.732,95.525Zm-6.075.932a1.868,1.868,0,1,1,1.9,1.868H4.489A1.868,1.868,0,0,1,2.657,96.457Zm2.966,6H.726A3.828,3.828,0,0,1,4.5,99.042h.054a3.788,3.788,0,0,1,2.442.909A5.882,5.882,0,0,0,5.623,102.46Zm10.811,1.783a1.669,1.669,0,0,1-1.667,1.667H7.822a1.669,1.669,0,0,1-1.667-1.667v-.3A5.146,5.146,0,0,1,11.142,98.8c.049,0,.1,0,.152,0s.1,0,.152,0a5.146,5.146,0,0,1,4.986,5.139Zm.533-1.783a5.867,5.867,0,0,0-1.357-2.491,3.806,3.806,0,0,1,2.464-.927h.054A3.828,3.828,0,0,1,21.9,102.46Z" transform="translate(0 -92.25)" fill="#79cb93"/>
  </g>
</svg>
