<svg xmlns="http://www.w3.org/2000/svg" width="14.053" height="16.061" viewBox="0 0 14.053 16.061">
  <path id="invoices" d="M36.19,5.487A3.513,3.513,0,1,0,39.7,1.974,3.517,3.517,0,0,0,36.19,5.487Zm6.491,0A2.978,2.978,0,1,1,39.7,2.51,2.981,2.981,0,0,1,42.681,5.487ZM39.7,3.681a.268.268,0,0,1,.268.268v.113a.8.8,0,0,1,.535.757.268.268,0,0,1-.535,0,.268.268,0,1,0-.535,0v.108a.267.267,0,0,0,.188.256l.319.1a.8.8,0,0,1,.564.767v.108a.8.8,0,0,1-.636.785v.085a.268.268,0,1,1-.535,0V6.87a.8.8,0,0,1-.435-.713.268.268,0,0,1,.535,0,.268.268,0,1,0,.535,0V6.048a.267.267,0,0,0-.188-.256l-.319-.1a.8.8,0,0,1-.564-.767V4.818a.8.8,0,0,1,.535-.757V3.948A.268.268,0,0,1,39.7,3.681Zm4.35,7.094v3.413a1.876,1.876,0,0,1-1.874,1.874H31.874A1.876,1.876,0,0,1,30,14.187V1.071A1.072,1.072,0,0,1,31.071,0h8.7a1.072,1.072,0,0,1,1.071,1.071.268.268,0,0,1-.535,0A.536.536,0,0,0,39.77.535h-8.7a.536.536,0,0,0-.535.535V14.187a1.34,1.34,0,0,0,1.338,1.338h9a1.868,1.868,0,0,1-.564-1.338V10a.268.268,0,0,1,.535,0v4.183a1.338,1.338,0,1,0,2.677,0V10.774a.536.536,0,0,0-.535-.535H41.845a.268.268,0,1,1,0-.535h1.138A1.072,1.072,0,0,1,44.053,10.774ZM32.342,7.194a.268.268,0,0,1,.268-.268h2.275a.268.268,0,1,1,0,.535H32.61A.268.268,0,0,1,32.342,7.194Zm0-3.011a.268.268,0,0,1,.268-.268h2.275a.268.268,0,1,1,0,.535H32.61A.268.268,0,0,1,32.342,4.183ZM38.5,10.205a.268.268,0,0,1-.268.268H32.61a.268.268,0,0,1,0-.535h5.621A.268.268,0,0,1,38.5,10.205Zm0,2.811a.268.268,0,0,1-.268.268H32.61a.268.268,0,0,1,0-.535h5.621A.268.268,0,0,1,38.5,13.016Z" transform="translate(-30)" fill="#ff4b5d"/>
</svg>
