<svg id="businessmen" xmlns="http://www.w3.org/2000/svg" width="15.622" height="15.622" viewBox="0 0 15.622 15.622">
  <g id="Group_1903" data-name="Group 1903" transform="translate(3.905)">
    <path id="Path_1896" data-name="Path 1896" d="M9.905,6.509H9.893a.328.328,0,0,1-.248-.13L8.766,5.207H6.976A.978.978,0,0,1,6,4.231V.976A.978.978,0,0,1,6.976,0h5.858a.978.978,0,0,1,.976.976V4.231a.978.978,0,0,1-.976.976H11.192L10.15,6.4A.324.324,0,0,1,9.905,6.509ZM6.976.651a.326.326,0,0,0-.325.325V4.231a.326.326,0,0,0,.325.325H8.929a.325.325,0,0,1,.26.13l.736.98.875-1a.326.326,0,0,1,.245-.111h1.79a.326.326,0,0,0,.325-.325V.976a.326.326,0,0,0-.325-.325Z" transform="translate(-6)" fill="#ff5d74"/>
  </g>
  <g id="Group_1904" data-name="Group 1904" transform="translate(12.179 0.651)">
    <path id="Path_1897" data-name="Path 1897" d="M19.55,7.509h-.013a.325.325,0,0,1-.248-.131l-.514-.69A.326.326,0,0,1,19.3,6.3l.273.367.874-1a.327.327,0,0,1,.245-.111h.488a.326.326,0,0,0,.325-.325V1.976a.326.326,0,0,0-.325-.325h-1.3a.325.325,0,1,1,0-.651h1.3a.978.978,0,0,1,.976.976V5.231a.978.978,0,0,1-.976.976h-.34L19.794,7.4A.324.324,0,0,1,19.55,7.509Z" transform="translate(-18.71 -1)" fill="#ff5d74"/>
  </g>
  <g id="Group_1905" data-name="Group 1905" transform="translate(0 0.651)">
    <path id="Path_1898" data-name="Path 1898" d="M2.6,7.509A.324.324,0,0,1,2.359,7.4L1.317,6.207H.976A.978.978,0,0,1,0,5.231V1.976A.978.978,0,0,1,.976,1h1.3a.325.325,0,1,1,0,.651H.976a.326.326,0,0,0-.325.325V5.231a.326.326,0,0,0,.325.325h.488a.324.324,0,0,1,.245.111l.874,1L2.856,6.3a.326.326,0,1,1,.522.389l-.514.69a.324.324,0,0,1-.247.131H2.6Z" transform="translate(0 -1)" fill="#ff5d74"/>
  </g>
  <g id="Group_1906" data-name="Group 1906" transform="translate(11.716 8.462)">
    <path id="Path_1899" data-name="Path 1899" d="M19.3,15.6a1.3,1.3,0,1,1,1.3-1.3A1.3,1.3,0,0,1,19.3,15.6Zm0-1.953a.651.651,0,1,0,.651.651A.652.652,0,0,0,19.3,13.651Z" transform="translate(-18 -13)" fill="#ff5d74"/>
  </g>
  <g id="Group_1907" data-name="Group 1907" transform="translate(11.716 11.716)">
    <path id="Path_1900" data-name="Path 1900" d="M21.58,20.6a.326.326,0,0,1-.325-.325v-.651a.978.978,0,0,0-.976-.976H18.325a.325.325,0,0,1,0-.651h1.953a1.63,1.63,0,0,1,1.627,1.627v.651A.326.326,0,0,1,21.58,20.6Z" transform="translate(-18 -18)" fill="#ff5d74"/>
  </g>
  <g id="Group_1908" data-name="Group 1908" transform="translate(1.302 8.462)">
    <path id="Path_1901" data-name="Path 1901" d="M3.3,15.6a1.3,1.3,0,1,1,1.3-1.3A1.3,1.3,0,0,1,3.3,15.6Zm0-1.953a.651.651,0,1,0,.651.651A.652.652,0,0,0,3.3,13.651Z" transform="translate(-2 -13)" fill="#ff5d74"/>
  </g>
  <g id="Group_1909" data-name="Group 1909" transform="translate(0 11.716)">
    <path id="Path_1902" data-name="Path 1902" d="M.325,20.6A.326.326,0,0,1,0,20.278v-.651A1.63,1.63,0,0,1,1.627,18H3.58a.325.325,0,1,1,0,.651H1.627a.978.978,0,0,0-.976.976v.651A.326.326,0,0,1,.325,20.6Z" transform="translate(0 -18)" fill="#ff5d74"/>
  </g>
  <g id="Group_1910" data-name="Group 1910" transform="translate(5.858 7.486)">
    <path id="Path_1903" data-name="Path 1903" d="M10.953,15.405a1.953,1.953,0,1,1,1.953-1.953A1.955,1.955,0,0,1,10.953,15.405Zm0-3.255a1.3,1.3,0,1,0,1.3,1.3A1.3,1.3,0,0,0,10.953,12.151Z" transform="translate(-9 -11.5)" fill="#ff5d74"/>
  </g>
  <g id="Group_1911" data-name="Group 1911" transform="translate(4.231 12.367)">
    <path id="Path_1904" data-name="Path 1904" d="M13.335,22.255a.326.326,0,0,1-.325-.325v-1.3a.978.978,0,0,0-.976-.976H8.127a.978.978,0,0,0-.976.976v1.3a.325.325,0,0,1-.651,0v-1.3A1.63,1.63,0,0,1,8.127,19h3.905a1.63,1.63,0,0,1,1.627,1.627v1.3A.326.326,0,0,1,13.335,22.255Z" transform="translate(-6.5 -19)" fill="#ff5d74"/>
  </g>
</svg>
