<svg xmlns="http://www.w3.org/2000/svg" width="22.114" height="18" viewBox="0 0 22.114 18">
  <g id="megaphone" transform="translate(0 -45.195)">
    <g id="Group_1806" data-name="Group 1806" transform="translate(0 45.195)">
      <path id="Path_1842" data-name="Path 1842" d="M19.118,49.967v-4.28a.5.5,0,0,0-.238-.4.594.594,0,0,0-.452-.071l-9.44,3.757H4.328a2.426,2.426,0,0,0-2.093,1.284l-.428.166A2.687,2.687,0,0,0,0,52.963a2.639,2.639,0,0,0,1.807,2.521l.285.119A2.449,2.449,0,0,0,3.281,56.91l1.26,4.565a2.33,2.33,0,0,0,4.114.785,2.449,2.449,0,0,0,.38-2.069L8.18,57.053h.808l9.44,3.828.166.048a.571.571,0,0,0,.285-.071.452.452,0,0,0,.238-.38V55.959a3,3,0,0,0,0-5.992ZM2,54.533a1.732,1.732,0,0,1,0-3.139Zm5.9,7.134a1.355,1.355,0,0,1-1.118.547,1.427,1.427,0,0,1-1.332-1.046L4.328,57.053H7.2l.9,3.377A1.427,1.427,0,0,1,7.894,61.666ZM8.655,56.1H4.328A1.308,1.308,0,0,1,2.95,54.868q0-.049,0-.1V51.394A1.427,1.427,0,0,1,4.326,49.92H8.655Zm9.511,3.662L9.606,56.34V49.824l8.56-3.424Zm.951-4.756v-4.09a2.045,2.045,0,0,1,0,4.09Z" transform="translate(0 -45.195)" fill="#102530"/>
    </g>
  </g>
</svg>
