<svg xmlns="http://www.w3.org/2000/svg" width="17" height="17" viewBox="0 0 17 17">
  <path id="Path_1885" data-name="Path 1885" d="M15.8,8.9a12.733,12.733,0,0,0-2.469-.2c-.407,0-.79.012-1.146.035V.913A.914.914,0,0,0,11.272,0H.913A.954.954,0,0,0,0,1.046V14.825a.9.9,0,0,0,.913.78H9.662v.382c0,.563.9.751,1.2.812a12.733,12.733,0,0,0,2.469.2,12.733,12.733,0,0,0,2.469-.2c.3-.062,1.2-.249,1.2-.812V9.712C17,9.149,16.1,8.961,15.8,8.9Zm.7,3.949c-.005.011-.109.194-.887.343a12.694,12.694,0,0,1-2.284.173,12.694,12.694,0,0,1-2.284-.173c-.8-.153-.886-.341-.887-.341v-.97a3.247,3.247,0,0,0,.7.214,12.733,12.733,0,0,0,2.469.2,12.733,12.733,0,0,0,2.469-.2,3.247,3.247,0,0,0,.7-.214ZM6.408,12.9a.249.249,0,0,0-.249.249v.631H2.374a.221.221,0,0,1-.216-.149V11.156h4v.83a.249.249,0,0,0,.5,0v-.83h3v2.623h-3v-.631A.249.249,0,0,0,6.408,12.9Zm4.25-3.954c-.382.094-1,.3-1,.767v.946h-3V8.035h3.785a.216.216,0,0,1,.216.216Zm-4.5,1.713h-4V8.317c0-.169.087-.282.216-.282H6.159Zm10.343.621c-.005.011-.109.194-.887.343a12.694,12.694,0,0,1-2.284.173,12.694,12.694,0,0,1-2.284-.173c-.8-.153-.886-.341-.887-.341v-.97a3.247,3.247,0,0,0,.7.214,12.73,12.73,0,0,0,2.469.2,12.733,12.733,0,0,0,2.469-.2,3.247,3.247,0,0,0,.7-.214ZM15.615,9.37c.751.144.874.32.886.341-.012.022-.135.2-.886.341a12.694,12.694,0,0,1-2.284.173,12.694,12.694,0,0,1-2.284-.173c-.751-.144-.874-.32-.886-.341.012-.022.135-.2.886-.341A12.694,12.694,0,0,1,13.331,9.2,12.694,12.694,0,0,1,15.615,9.37ZM.913,15.107A.432.432,0,0,1,.5,14.825V6.707H8.7a.249.249,0,0,0,0-.5H.5V1.046C.5.713.661.5.913.5H11.272a.415.415,0,0,1,.415.415v5.3H9.861a.249.249,0,0,0,0,.5h1.826V8.776q-.282.029-.531.07V8.251a.715.715,0,0,0-.714-.714H2.374a.733.733,0,0,0-.714.78V13.63a.7.7,0,0,0,.714.647H9.662v.83Zm14.7,1.221a12.694,12.694,0,0,1-2.284.173,12.694,12.694,0,0,1-2.284-.173c-.8-.153-.886-.341-.887-.341v-.97a3.247,3.247,0,0,0,.7.214,12.733,12.733,0,0,0,2.469.2c.475,0,.924-.016,1.336-.049a.249.249,0,0,0-.039-.5c-.4.031-.835.047-1.3.047a12.694,12.694,0,0,1-2.284-.173c-.8-.153-.886-.341-.887-.341v-.97a3.247,3.247,0,0,0,.7.214,12.733,12.733,0,0,0,2.469.2,12.733,12.733,0,0,0,2.469-.2,3.247,3.247,0,0,0,.7-.214v.969c-.005.011-.1.173-.756.316a.249.249,0,1,0,.106.487,3.131,3.131,0,0,0,.65-.2v.969C16.5,16,16.393,16.179,15.615,16.329Z" fill="#606060"/>
</svg>
