<svg xmlns="http://www.w3.org/2000/svg" width="16.88" height="16.882" viewBox="0 0 16.88 16.882">
  <path id="home-run_2_" data-name="home-run (2)" d="M16.927,7.342h0L10.039.455a1.554,1.554,0,0,0-2.2,0L.958,7.337l-.007.007A1.553,1.553,0,0,0,1.985,9.992l.048,0h.274v5.068a1.821,1.821,0,0,0,1.819,1.819H6.821a.5.5,0,0,0,.495-.495V12.413a.831.831,0,0,1,.83-.83H9.735a.831.831,0,0,1,.83.83v3.973a.5.5,0,0,0,.495.495h2.694a1.821,1.821,0,0,0,1.819-1.819V9.995h.255a1.554,1.554,0,0,0,1.1-2.652Zm-.7,1.5a.561.561,0,0,1-.4.166h-.749a.5.5,0,0,0-.495.495v5.562a.831.831,0,0,1-.83.83h-2.2V12.413a1.821,1.821,0,0,0-1.819-1.819H8.145a1.821,1.821,0,0,0-1.819,1.819v3.479h-2.2a.831.831,0,0,1-.83-.83V9.5A.5.5,0,0,0,2.8,9.005H2.043a.564.564,0,0,1-.389-.964h0L8.541,1.154a.565.565,0,0,1,.8,0l6.885,6.884,0,0a.566.566,0,0,1,0,.8Zm0,0" transform="translate(-0.5 0.001)" fill="#606060"/>
</svg>
