<svg id="Group_1912" data-name="Group 1912" xmlns="http://www.w3.org/2000/svg" width="17" height="17" viewBox="0 0 17 17">
  <path id="Path_1905" data-name="Path 1905" d="M11.763,17a8.519,8.519,0,0,0,3.86-.983.019.019,0,0,1,.016,0,5.516,5.516,0,0,0,2.792.612.7.7,0,0,0,.453-1.137,6.944,6.944,0,0,1-.857-1.357.021.021,0,0,1,.006-.02,8.491,8.491,0,0,0,.213-10.972.431.431,0,0,0-.668.544,7.63,7.63,0,0,1-.191,9.859.879.879,0,0,0-.136.963,7.913,7.913,0,0,0,.775,1.282,5.42,5.42,0,0,1-2.018-.554.884.884,0,0,0-.788.018,7.576,7.576,0,0,1-8.877-1.306A7.621,7.621,0,0,1,16.2,2.367a.431.431,0,0,0,.514-.691A8.481,8.481,0,0,0,5.741,14.566,8.436,8.436,0,0,0,11.654,17Z" transform="translate(-3.151 0)" fill="#606060"/>
  <path id="Path_1906" data-name="Path 1906" d="M197.343,122.928a1.523,1.523,0,1,0,1.523-1.523A1.524,1.524,0,0,0,197.343,122.928Zm2.183,0a.661.661,0,1,1-.661-.661A.662.662,0,0,1,199.526,122.928Z" transform="translate(-186.189 -114.431)" fill="#606060"/>
  <path id="Path_1907" data-name="Path 1907" d="M124.623,122.928a1.523,1.523,0,1,0,1.523-1.523A1.524,1.524,0,0,0,124.623,122.928Zm2.184,0a.661.661,0,1,1-.661-.661A.662.662,0,0,1,126.807,122.928Z" transform="translate(-117.646 -114.431)" fill="#606060"/>
  <path id="Path_1908" data-name="Path 1908" d="M51.9,122.928a1.523,1.523,0,1,0,1.523-1.523A1.524,1.524,0,0,0,51.9,122.928Zm2.184,0a.661.661,0,1,1-.661-.661A.662.662,0,0,1,54.088,122.928Z" transform="translate(-49.104 -114.431)" fill="#606060"/>
</svg>
