<svg id="Component_4_1" data-name="Component 4 – 1" xmlns="http://www.w3.org/2000/svg" width="17" height="17" viewBox="0 0 17 17">
  <path id="Path_1896" data-name="Path 1896" d="M10.25,7.083h-.013a.356.356,0,0,1-.27-.142L9.01,5.667H7.063A1.064,1.064,0,0,1,6,4.6V1.063A1.064,1.064,0,0,1,7.063,0h6.375A1.064,1.064,0,0,1,14.5,1.063V4.6a1.064,1.064,0,0,1-1.062,1.063H11.65l-1.134,1.3A.353.353,0,0,1,10.25,7.083ZM7.063.708a.354.354,0,0,0-.354.354V4.6a.354.354,0,0,0,.354.354H9.188a.354.354,0,0,1,.283.142l.8,1.067.952-1.088a.355.355,0,0,1,.266-.12h1.948a.354.354,0,0,0,.354-.354V1.062a.354.354,0,0,0-.354-.354Z" transform="translate(-1.75)" fill="#606060"/>
  <path id="Path_1897" data-name="Path 1897" d="M19.624,8.083H19.61a.354.354,0,0,1-.27-.142l-.56-.751a.354.354,0,0,1,.568-.424l.3.4L20.6,6.079a.356.356,0,0,1,.267-.121h.531a.354.354,0,0,0,.354-.354V2.063a.354.354,0,0,0-.354-.354H19.978a.354.354,0,0,1,0-.708h1.417a1.064,1.064,0,0,1,1.063,1.063V5.6a1.064,1.064,0,0,1-1.062,1.063h-.37l-1.134,1.3A.353.353,0,0,1,19.624,8.083Z" transform="translate(-5.457 -0.292)" fill="#606060"/>
  <path id="Path_1898" data-name="Path 1898" d="M2.833,8.083a.353.353,0,0,1-.266-.121l-1.134-1.3h-.37A1.064,1.064,0,0,1,0,5.6V2.063A1.064,1.064,0,0,1,1.063,1H2.479a.354.354,0,0,1,0,.708H1.063a.354.354,0,0,0-.354.354V5.6a.354.354,0,0,0,.354.354h.531a.353.353,0,0,1,.266.121l.951,1.087.3-.4a.354.354,0,1,1,.568.424l-.56.751a.352.352,0,0,1-.269.142H2.833Z" transform="translate(0 -0.292)" fill="#606060"/>
  <path id="Path_1899" data-name="Path 1899" d="M19.417,15.833a1.417,1.417,0,1,1,1.417-1.417A1.418,1.418,0,0,1,19.417,15.833Zm0-2.125a.708.708,0,1,0,.708.708A.71.71,0,0,0,19.417,13.708Z" transform="translate(-5.25 -3.792)" fill="#606060"/>
  <path id="Path_1900" data-name="Path 1900" d="M21.9,20.833a.354.354,0,0,1-.354-.354v-.708a1.064,1.064,0,0,0-1.062-1.062H18.354a.354.354,0,1,1,0-.708h2.125a1.773,1.773,0,0,1,1.771,1.771v.708A.354.354,0,0,1,21.9,20.833Z" transform="translate(-5.25 -5.25)" fill="#606060"/>
  <path id="Path_1901" data-name="Path 1901" d="M3.417,15.833a1.417,1.417,0,1,1,1.417-1.417A1.418,1.418,0,0,1,3.417,15.833Zm0-2.125a.708.708,0,1,0,.708.708A.71.71,0,0,0,3.417,13.708Z" transform="translate(-0.583 -3.792)" fill="#606060"/>
  <path id="Path_1902" data-name="Path 1902" d="M.354,20.833A.354.354,0,0,1,0,20.479v-.708A1.773,1.773,0,0,1,1.771,18H3.9a.354.354,0,1,1,0,.708H1.771A1.064,1.064,0,0,0,.708,19.771v.708A.354.354,0,0,1,.354,20.833Z" transform="translate(0 -5.25)" fill="#606060"/>
  <path id="Path_1903" data-name="Path 1903" d="M11.125,15.75a2.125,2.125,0,1,1,2.125-2.125A2.128,2.128,0,0,1,11.125,15.75Zm0-3.542a1.417,1.417,0,1,0,1.417,1.417A1.418,1.418,0,0,0,11.125,12.208Z" transform="translate(-2.625 -3.354)" fill="#606060"/>
  <path id="Path_1904" data-name="Path 1904" d="M13.937,22.542a.354.354,0,0,1-.354-.354V20.771a1.064,1.064,0,0,0-1.062-1.062H8.271a1.064,1.064,0,0,0-1.062,1.063v1.417a.354.354,0,0,1-.708,0V20.771A1.773,1.773,0,0,1,8.271,19h4.25a1.773,1.773,0,0,1,1.771,1.771v1.417A.354.354,0,0,1,13.937,22.542Z" transform="translate(-1.896 -5.542)" fill="#606060"/>
</svg>
