<svg xmlns="http://www.w3.org/2000/svg" width="15.969" height="18.5" viewBox="0 0 15.969 18.5">
  <g id="bell_5_" data-name="bell (5)" transform="translate(-6.73 -1.75)">
    <g id="_2_PT" data-name="2 PT" transform="translate(7 2)">
      <path id="Path_1843" data-name="Path 1843" d="M20.965,23.23H8.464a1.464,1.464,0,0,1-1.2-2.3,9.158,9.158,0,0,0,1.27-4.408v-1.1a6.27,6.27,0,0,1,6.061-6.3,6.18,6.18,0,0,1,6.3,6.178v1.222a9.161,9.161,0,0,0,1.27,4.408,1.464,1.464,0,0,1-1.2,2.3ZM7.686,21.221a.949.949,0,0,0,.777,1.494h12.5a.949.949,0,0,0,.777-1.494,9.617,9.617,0,0,1-1.363-4.7V15.3a5.666,5.666,0,0,0-5.773-5.664,5.753,5.753,0,0,0-5.556,5.782v1.1a9.621,9.621,0,0,1-1.363,4.7Z" transform="translate(-7 -7.287)" fill="#102530" stroke="#102530" stroke-width="0.5"/>
      <path id="Path_1844" data-name="Path 1844" d="M33.613,4.345a1.172,1.172,0,1,1,1.172-1.172A1.172,1.172,0,0,1,33.613,4.345Zm0-1.83a.658.658,0,1,0,.658.658.658.658,0,0,0-.658-.658Z" transform="translate(-25.899 -2)" fill="#102530" stroke="#102530" stroke-width="0.5"/>
      <path id="Path_1845" data-name="Path 1845" d="M30.314,65.314A2.317,2.317,0,0,1,28,63h.514a1.8,1.8,0,1,0,3.6,0h.514A2.317,2.317,0,0,1,30.314,65.314Z" transform="translate(-22.6 -47.314)" fill="#102530" stroke="#102530" stroke-width="0.5"/>
    </g>
  </g>
</svg>
