<svg id="Group_1897" data-name="Group 1897" xmlns="http://www.w3.org/2000/svg" width="17" height="15.3" viewBox="0 0 17 15.3">
  <path id="Path_1873" data-name="Path 1873" d="M16.717,38.733h-1.7V28.25a.283.283,0,0,0-.283-.283H9.917V24.283A.283.283,0,0,0,9.633,24H2.267a.283.283,0,0,0-.283.283v14.45H.283a.283.283,0,1,0,0,.567H16.717a.283.283,0,1,0,0-.567Zm-7.367,0H2.55V24.567h6.8Zm5.1,0H9.917v-10.2H14.45Z" transform="translate(0 -24)" fill="#606060"/>
  <path id="Path_1874" data-name="Path 1874" d="M312.283,170.267h1.7a.283.283,0,0,0,.283-.283v-1.7a.283.283,0,0,0-.283-.283h-1.7a.283.283,0,0,0-.283.283v1.7A.283.283,0,0,0,312.283,170.267Zm.283-1.7H313.7V169.7h-1.133Z" transform="translate(-300.95 -162.9)" fill="#606060"/>
  <path id="Path_1875" data-name="Path 1875" d="M312.283,250.267h1.7a.283.283,0,0,0,.283-.283v-1.7a.283.283,0,0,0-.283-.283h-1.7a.283.283,0,0,0-.283.283v1.7A.283.283,0,0,0,312.283,250.267Zm.283-1.7H313.7V249.7h-1.133Z" transform="translate(-300.95 -240.067)" fill="#606060"/>
  <path id="Path_1876" data-name="Path 1876" d="M312.283,330.267h1.7a.283.283,0,0,0,.283-.283v-1.7a.283.283,0,0,0-.283-.283h-1.7a.283.283,0,0,0-.283.283v1.7A.283.283,0,0,0,312.283,330.267Zm.283-1.7H313.7V329.7h-1.133Z" transform="translate(-300.95 -317.233)" fill="#606060"/>
  <path id="Path_1877" data-name="Path 1877" d="M176.283,170.267h1.7a.283.283,0,0,0,.283-.283v-1.7a.283.283,0,0,0-.283-.283h-1.7a.283.283,0,0,0-.283.283v1.7A.283.283,0,0,0,176.283,170.267Zm.283-1.7H177.7V169.7h-1.133Z" transform="translate(-169.767 -162.9)" fill="#606060"/>
  <path id="Path_1878" data-name="Path 1878" d="M176.283,90.267h1.7a.283.283,0,0,0,.283-.283v-1.7a.283.283,0,0,0-.283-.283h-1.7a.283.283,0,0,0-.283.283v1.7A.283.283,0,0,0,176.283,90.267Zm.283-1.7H177.7V89.7h-1.133Z" transform="translate(-169.767 -85.733)" fill="#606060"/>
  <path id="Path_1879" data-name="Path 1879" d="M176.283,250.267h1.7a.283.283,0,0,0,.283-.283v-1.7a.283.283,0,0,0-.283-.283h-1.7a.283.283,0,0,0-.283.283v1.7A.283.283,0,0,0,176.283,250.267Zm.283-1.7H177.7V249.7h-1.133Z" transform="translate(-169.767 -240.067)" fill="#606060"/>
  <path id="Path_1880" data-name="Path 1880" d="M176.283,330.267h1.7a.283.283,0,0,0,.283-.283v-1.7a.283.283,0,0,0-.283-.283h-1.7a.283.283,0,0,0-.283.283v1.7A.283.283,0,0,0,176.283,330.267Zm.283-1.7H177.7V329.7h-1.133Z" transform="translate(-169.767 -317.233)" fill="#606060"/>
  <path id="Path_1881" data-name="Path 1881" d="M96.283,170.267h1.7a.283.283,0,0,0,.283-.283v-1.7a.283.283,0,0,0-.283-.283h-1.7a.283.283,0,0,0-.283.283v1.7A.283.283,0,0,0,96.283,170.267Zm.283-1.7H97.7V169.7H96.567Z" transform="translate(-92.6 -162.9)" fill="#606060"/>
  <path id="Path_1882" data-name="Path 1882" d="M96.283,90.267h1.7a.283.283,0,0,0,.283-.283v-1.7A.283.283,0,0,0,97.983,88h-1.7a.283.283,0,0,0-.283.283v1.7A.283.283,0,0,0,96.283,90.267Zm.283-1.7H97.7V89.7H96.567Z" transform="translate(-92.6 -85.733)" fill="#606060"/>
  <path id="Path_1883" data-name="Path 1883" d="M96.283,250.267h1.7a.283.283,0,0,0,.283-.283v-1.7a.283.283,0,0,0-.283-.283h-1.7a.283.283,0,0,0-.283.283v1.7A.283.283,0,0,0,96.283,250.267Zm.283-1.7H97.7V249.7H96.567Z" transform="translate(-92.6 -240.067)" fill="#606060"/>
  <path id="Path_1884" data-name="Path 1884" d="M96.283,330.267h1.7a.283.283,0,0,0,.283-.283v-1.7a.283.283,0,0,0-.283-.283h-1.7a.283.283,0,0,0-.283.283v1.7A.283.283,0,0,0,96.283,330.267Zm.283-1.7H97.7V329.7H96.567Z" transform="translate(-92.6 -317.233)" fill="#606060"/>
</svg>
