<svg xmlns="http://www.w3.org/2000/svg" width="20.629" height="22.103" viewBox="0 0 20.629 22.103">
  <g id="pdf" transform="translate(-15.61)">
    <path id="Path_3189" data-name="Path 3189" d="M19.19,0,15.61,3.58V22.1H31.819V0Z" transform="translate(0)" fill="#fff"/>
    <path id="Path_3190" data-name="Path 3190" d="M62.524,148.943a2.577,2.577,0,0,0-1.49-.808,13.771,13.771,0,0,0-2.689-.216,10.967,10.967,0,0,1-2.019-2.7,30.836,30.836,0,0,0,.81-3.441,1.282,1.282,0,0,0-.272-1.043,1.163,1.163,0,0,0-.894-.426h0a1.007,1.007,0,0,0-.819.394c-.677.863-.214,2.951-.114,3.361a6.931,6.931,0,0,0,.426,1.214A18.408,18.408,0,0,1,54,148.732a12.1,12.1,0,0,0-3.524,1.946,1.428,1.428,0,0,0-.522,1.033,1,1,0,0,0,.374.738,1.245,1.245,0,0,0,.822.3,1.356,1.356,0,0,0,.86-.309,11.442,11.442,0,0,0,2.528-3.029,12.739,12.739,0,0,1,3.5-.67,19.714,19.714,0,0,0,2.5,2.038,1.605,1.605,0,0,0,2.013-.133A1.143,1.143,0,0,0,62.524,148.943Zm-11.031,2.875a.508.508,0,0,1-.639.023.236.236,0,0,1-.1-.152c0-.037.016-.178.26-.416a10.685,10.685,0,0,1,2.217-1.339A9.9,9.9,0,0,1,51.494,151.818ZM55.786,141.2a.2.2,0,0,1,.185-.086.358.358,0,0,1,.274.135.468.468,0,0,1,.1.38h0c-.1.52-.25,1.346-.5,2.327l-.022-.085C55.611,143.014,55.462,141.616,55.786,141.2Zm-.7,7.182a19.318,19.318,0,0,0,.9-2.129,12.052,12.052,0,0,0,1.311,1.724A13.375,13.375,0,0,0,55.091,148.384Zm6.9,1.679a.8.8,0,0,1-1,.05,19.449,19.449,0,0,1-1.77-1.374,12.855,12.855,0,0,1,1.671.189,1.771,1.771,0,0,1,1.026.545C62.232,149.832,62.092,149.966,61.991,150.064Z" transform="translate(-32.719 -133.688)" fill="#e56353"/>
    <path id="Path_3191" data-name="Path 3191" d="M19.19,3.58V0L15.61,3.58Z" transform="translate(0)" fill="#ebf0f3"/>
    <path id="Path_3192" data-name="Path 3192" d="M273.618,38.467h-7.662a.589.589,0,0,1-.589-.589V34.6a.589.589,0,0,1,.589-.589h7.662a.589.589,0,0,1,.589.589v3.281A.589.589,0,0,1,273.618,38.467Z" transform="translate(-237.968 -32.402)" fill="#e30016"/>
    <g id="Group_2549" data-name="Group 2549" transform="translate(28.403 2.599)">
      <path id="Path_3193" data-name="Path 3193" d="M288.316,55.28a.817.817,0,0,1,.258.665.788.788,0,0,1-.264.658,1.291,1.291,0,0,1-.808.209h-.439v.725h-.417V55.064h.849A1.27,1.27,0,0,1,288.316,55.28Zm-.3,1.02a.545.545,0,0,0,.125-.389.4.4,0,0,0-.159-.362.918.918,0,0,0-.5-.106h-.424v.99h.484A.646.646,0,0,0,288.021,56.3Z" transform="translate(-286.647 -55.064)" fill="#ebf0f3"/>
      <path id="Path_3194" data-name="Path 3194" d="M339.768,55.388a1.152,1.152,0,0,1,.357.9,1.211,1.211,0,0,1-.347.912,1.472,1.472,0,0,1-1.061.336H337.9V55.064h.849A1.471,1.471,0,0,1,339.768,55.388Zm-.064.911q0-.849-.973-.849h-.417v1.694h.463a1,1,0,0,0,.688-.214A.8.8,0,0,0,339.7,56.3Z" transform="translate(-335.478 -55.064)" fill="#ebf0f3"/>
      <path id="Path_3195" data-name="Path 3195" d="M396.905,55.453v.679H398v.386h-1.1v1.018h-.417V55.064h1.648l0,.389Z" transform="translate(-391.304 -55.064)" fill="#ebf0f3"/>
    </g>
  </g>
</svg>
