<svg xmlns="http://www.w3.org/2000/svg" width="13" height="16" viewBox="0 0 13 16">
  <g id="trash_3_" data-name="trash (3)" transform="translate(-48)">
    <path id="Path_1929" data-name="Path 1929" d="M59.75,2H57V1.5A1.5,1.5,0,0,0,55.5,0h-2A1.5,1.5,0,0,0,52,1.5V2H49.25A1.25,1.25,0,0,0,48,3.25v1a.5.5,0,0,0,.5.5h12a.5.5,0,0,0,.5-.5v-1A1.25,1.25,0,0,0,59.75,2ZM53,1.5a.5.5,0,0,1,.5-.5h2a.5.5,0,0,1,.5.5V2H53Z" fill="#ff717f"/>
    <path id="Path_1930" data-name="Path 1930" d="M73.52,184a.156.156,0,0,0-.156.164l.412,8.658a1.5,1.5,0,0,0,1.5,1.429h7.593a1.5,1.5,0,0,0,1.5-1.429l.412-8.658a.156.156,0,0,0-.156-.164Zm7.551,1.25a.5.5,0,0,1,1,0v6.5a.5.5,0,0,1-1,0Zm-2.5,0a.5.5,0,0,1,1,0v6.5a.5.5,0,0,1-1,0Zm-2.5,0a.5.5,0,0,1,1,0v6.5a.5.5,0,0,1-1,0Z" transform="translate(-24.572 -178.25)" fill="#ff717f"/>
  </g>
</svg>
