<svg xmlns="http://www.w3.org/2000/svg" width="14.398" height="14.398" viewBox="0 0 14.398 14.398">
  <g id="Solid" transform="translate(-24 -23.999)">
    <path id="Path_1931" data-name="Path 1931" d="M142.762,28.079l1.537-1.537v8.132a.745.745,0,0,0,1.489,0V26.542l1.537,1.537a.745.745,0,1,0,1.053-1.053l-2.809-2.809a.745.745,0,0,0-1.053,0l-2.809,2.809a.745.745,0,0,0,1.053,1.053Z" transform="translate(-113.845 0)" fill="#fff"/>
    <path id="Path_1932" data-name="Path 1932" d="M37.653,232a.745.745,0,0,0-.745.745v5.71H25.489v-5.71a.745.745,0,0,0-1.489,0V238.7a1.241,1.241,0,0,0,1.241,1.241H37.157A1.241,1.241,0,0,0,38.4,238.7v-5.958A.745.745,0,0,0,37.653,232Z" transform="translate(0 -201.547)" fill="#fff"/>
  </g>
</svg>
