<svg xmlns="http://www.w3.org/2000/svg" width="18.293" height="17.534" viewBox="0 0 18.293 17.534">
  <g id="word" transform="translate(0 -10.626)">
    <g id="Group_3717" data-name="Group 3717" transform="translate(0 10.626)">
      <path id="Path_6240" data-name="Path 6240" d="M10.527,10.711a.381.381,0,0,0-.323-.076L.3,12.922A.381.381,0,0,0,0,13.3V26.254a.381.381,0,0,0,.323.377l9.909,1.524a.381.381,0,0,0,.439-.377V11.01A.381.381,0,0,0,10.527,10.711Z" transform="translate(0 -10.626)" fill="#1565c0"/>
      <path id="Path_6241" data-name="Path 6241" d="M285.336,67.859h-7.622a.381.381,0,0,1,0-.762h7.241V54.139h-7.241a.381.381,0,1,1,0-.762h7.622a.381.381,0,0,1,.381.381v13.72A.381.381,0,0,1,285.336,67.859Z" transform="translate(-267.424 -51.85)" fill="#1565c0"/>
    </g>
    <path id="Path_6242" data-name="Path 6242" d="M47.525,187.193a.381.381,0,0,1-.366-.276L46,182.864l-1.159,4.053a.4.4,0,0,1-.733,0l-1.524-5.336a.381.381,0,1,1,.726-.231l.006.021,1.159,4.053,1.159-4.053a.4.4,0,0,1,.733,0l1.158,4.053,1.159-4.053a.377.377,0,0,1,.463-.264l.009,0a.381.381,0,0,1,.261.471l-1.524,5.336A.381.381,0,0,1,47.525,187.193Z" transform="translate(-41.047 -164.369)" fill="#fafafa"/>
    <g id="Group_3718" data-name="Group 3718" transform="translate(9.908 14.44)">
      <path id="Path_6243" data-name="Path 6243" d="M283.812,118.138h-6.1a.381.381,0,0,1,0-.762h6.1a.381.381,0,1,1,0,.762Z" transform="translate(-277.333 -117.376)" fill="#1565c0"/>
      <path id="Path_6244" data-name="Path 6244" d="M283.812,182.138h-6.1a.381.381,0,0,1,0-.762h6.1a.381.381,0,1,1,0,.762Z" transform="translate(-277.333 -179.089)" fill="#1565c0"/>
      <path id="Path_6245" data-name="Path 6245" d="M283.812,246.138h-6.1a.381.381,0,0,1,0-.762h6.1a.381.381,0,1,1,0,.762Z" transform="translate(-277.333 -240.803)" fill="#1565c0"/>
      <path id="Path_6246" data-name="Path 6246" d="M283.812,310.138h-6.1a.381.381,0,0,1,0-.762h6.1a.381.381,0,1,1,0,.762Z" transform="translate(-277.333 -302.516)" fill="#1565c0"/>
      <path id="Path_6247" data-name="Path 6247" d="M283.812,374.138h-6.1a.381.381,0,0,1,0-.762h6.1a.381.381,0,1,1,0,.762Z" transform="translate(-277.333 -364.229)" fill="#1565c0"/>
    </g>
  </g>
</svg>
